<mxfile host="3d30a201-90f1-4fd1-a062-2296c345ad50" modified="2020-09-03T12:20:47.399Z" agent="5.0 (Macintosh; Intel Mac OS X 10_15_6) AppleWebKit/537.36 (KHTML, like Gecko) Code/1.47.3 Chrome/78.0.3904.130 Electron/7.3.2 Safari/537.36" etag="sdqtUeKg6zeTRkfS_Esy" version="13.1.3">
    <diagram id="6hGFLwfOUW9BJ-s0fimq" name="Page-1">
        <mxGraphModel dx="830" dy="892" grid="1" gridSize="10" guides="1" tooltips="1" connect="1" arrows="1" fold="1" page="1" pageScale="1" pageWidth="690" pageHeight="980" math="0" shadow="0">
            <root>
                <mxCell id="0"/>
                <mxCell id="1" parent="0"/>
                <mxCell id="35" value="" style="endArrow=none;html=1;" parent="1" edge="1">
                    <mxGeometry width="50" height="50" relative="1" as="geometry">
                        <mxPoint x="200" y="20" as="sourcePoint"/>
                        <mxPoint x="440" y="20" as="targetPoint"/>
                    </mxGeometry>
                </mxCell>
                <mxCell id="36" value="" style="endArrow=none;html=1;" parent="1" edge="1">
                    <mxGeometry width="50" height="50" relative="1" as="geometry">
                        <mxPoint x="200" y="375.26" as="sourcePoint"/>
                        <mxPoint x="300" y="375" as="targetPoint"/>
                    </mxGeometry>
                </mxCell>
                <mxCell id="37" value="" style="endArrow=none;html=1;entryX=0;entryY=0.645;entryDx=0;entryDy=0;entryPerimeter=0;" parent="1" edge="1" target="218">
                    <mxGeometry width="50" height="50" relative="1" as="geometry">
                        <mxPoint x="200" y="456.26" as="sourcePoint"/>
                        <mxPoint x="580" y="376.26" as="targetPoint"/>
                        <Array as="points">
                            <mxPoint x="200" y="456.26"/>
                            <mxPoint x="585" y="456"/>
                        </Array>
                    </mxGeometry>
                </mxCell>
                <mxCell id="38" value="U相" style="text;html=1;strokeColor=none;fillColor=none;align=center;verticalAlign=middle;whiteSpace=wrap;rounded=0;" parent="1" vertex="1">
                    <mxGeometry x="150" y="10" width="40" height="20" as="geometry"/>
                </mxCell>
                <mxCell id="39" value="V相" style="text;html=1;strokeColor=none;fillColor=none;align=center;verticalAlign=middle;whiteSpace=wrap;rounded=0;" parent="1" vertex="1">
                    <mxGeometry x="150" y="450" width="40" height="20" as="geometry"/>
                </mxCell>
                <mxCell id="40" value="W相" style="text;html=1;strokeColor=none;fillColor=none;align=center;verticalAlign=middle;whiteSpace=wrap;rounded=0;" parent="1" vertex="1">
                    <mxGeometry x="150" y="365.01" width="40" height="20" as="geometry"/>
                </mxCell>
                <mxCell id="92" value="" style="group;rotation=105;" parent="1" vertex="1" connectable="0">
                    <mxGeometry x="505.44" y="176.53" width="133.5" height="208.48" as="geometry"/>
                </mxCell>
                <mxCell id="70" value="" style="group;rotation=105;" parent="92" vertex="1" connectable="0">
                    <mxGeometry x="40.00012551952789" y="53.836451861463864" width="133.5" height="138.9278850930495" as="geometry"/>
                </mxCell>
                <mxCell id="227" value="" style="group;rotation=135;" vertex="1" connectable="0" parent="92">
                    <mxGeometry x="21.000070057410916" y="15.633232554996905" width="54.00054732352281" height="140.80615115812108" as="geometry"/>
                </mxCell>
                <mxCell id="212" value="" style="group;rotation=135;" vertex="1" connectable="0" parent="227">
                    <mxGeometry width="54.00054732352281" height="140.80615115812108" as="geometry"/>
                </mxCell>
                <mxCell id="213" style="edgeStyle=orthogonalEdgeStyle;rounded=0;orthogonalLoop=1;jettySize=auto;html=1;entryX=0.5;entryY=0;entryDx=0;entryDy=0;startArrow=none;startFill=0;endArrow=none;endFill=0;" edge="1" parent="212" target="223">
                    <mxGeometry relative="1" as="geometry">
                        <mxPoint x="-27.000078814587283" y="40.38626040969365" as="sourcePoint"/>
                    </mxGeometry>
                </mxCell>
                <mxCell id="214" value="" style="pointerEvents=1;verticalLabelPosition=bottom;shadow=0;dashed=0;align=center;html=1;verticalAlign=top;shape=mxgraph.electrical.inductors.inductor_5;rotation=225;" vertex="1" parent="212">
                    <mxGeometry x="-36.00010508611638" y="48.02690427098704" width="42.5001240599985" height="15.281287722586786" as="geometry"/>
                </mxCell>
                <mxCell id="215" value="" style="group;rotation=135;" vertex="1" connectable="0" parent="212">
                    <mxGeometry x="17.0000496239994" y="42.569301512920326" width="54.000157629174566" height="90.59620578390737" as="geometry"/>
                </mxCell>
                <mxCell id="216" value="" style="pointerEvents=1;verticalLabelPosition=bottom;shadow=0;dashed=0;align=center;html=1;verticalAlign=top;shape=mxgraph.electrical.inductors.inductor_5;rotation=225;" vertex="1" parent="215">
                    <mxGeometry x="34.0000992479988" y="37.11169875485362" width="40.00011676235153" height="15.281287722586786" as="geometry"/>
                </mxCell>
                <mxCell id="217" value="" style="pointerEvents=1;verticalLabelPosition=bottom;shadow=0;dashed=0;align=center;html=1;verticalAlign=top;shape=mxgraph.electrical.inductors.inductor_5;rotation=225;" vertex="1" parent="215">
                    <mxGeometry x="5.000014595293941" y="4.366082206453367" width="40.00011676235153" height="15.281287722586786" as="geometry"/>
                </mxCell>
                <mxCell id="218" value="" style="pointerEvents=1;verticalLabelPosition=bottom;shadow=0;dashed=0;align=center;html=1;verticalAlign=top;shape=mxgraph.electrical.inductors.inductor_5;rotation=225;" vertex="1" parent="215">
                    <mxGeometry x="6.000017514352729" y="66.58275364841386" width="40.00011676235153" height="15.281287722586786" as="geometry"/>
                </mxCell>
                <mxCell id="219" value="" style="pointerEvents=1;verticalLabelPosition=bottom;shadow=0;dashed=0;align=center;html=1;verticalAlign=top;shape=mxgraph.electrical.inductors.inductor_5;rotation=225;" vertex="1" parent="215">
                    <mxGeometry x="-22.000064219293343" y="37.11169875485362" width="40.00011676235153" height="15.281287722586786" as="geometry"/>
                </mxCell>
                <mxCell id="220" value="" style="ellipse;whiteSpace=wrap;html=1;aspect=fixed;fillColor=#000000;strokeColor=#000000;rotation=135;" vertex="1" parent="215">
                    <mxGeometry x="40.00011676235153" y="86.230123577454" width="4.8710422562003775" height="4.8710422562003775" as="geometry"/>
                </mxCell>
                <mxCell id="221" value="" style="endArrow=none;html=1;entryX=-0.003;entryY=0.857;entryDx=0;entryDy=0;entryPerimeter=0;" edge="1" parent="215" target="218">
                    <mxGeometry width="50" height="50" relative="1" as="geometry">
                        <mxPoint x="70.00020433411518" y="57.850589235507115" as="sourcePoint"/>
                        <mxPoint x="49.000143033880626" y="80.7725208193873" as="targetPoint"/>
                    </mxGeometry>
                </mxCell>
                <mxCell id="222" value="" style="pointerEvents=1;verticalLabelPosition=bottom;shadow=0;dashed=0;align=center;html=1;verticalAlign=top;shape=mxgraph.electrical.inductors.inductor_5;rotation=225;" vertex="1" parent="212">
                    <mxGeometry x="-8.000023352470306" y="18.55584937742681" width="43.750127708821985" height="15.281287722586786" as="geometry"/>
                </mxCell>
                <mxCell id="223" value="" style="ellipse;whiteSpace=wrap;html=1;aspect=fixed;fillColor=#000000;strokeColor=#000000;rotation=135;" vertex="1" parent="212">
                    <mxGeometry x="-33.00009632894001" y="33.83713710001359" width="4.8710422562003775" height="4.8710422562003775" as="geometry"/>
                </mxCell>
                <mxCell id="224" value="" style="endArrow=none;html=1;entryX=-0.03;entryY=0.4;entryDx=0;entryDy=0;entryPerimeter=0;" edge="1" parent="212" target="223">
                    <mxGeometry width="50" height="50" relative="1" as="geometry">
                        <mxPoint x="-1.0000029190587882" y="6.54912330968005" as="sourcePoint"/>
                        <mxPoint x="-57.00016638635093" y="69.85731530325387" as="targetPoint"/>
                    </mxGeometry>
                </mxCell>
                <mxCell id="225" style="edgeStyle=orthogonalEdgeStyle;rounded=0;orthogonalLoop=1;jettySize=auto;html=1;exitX=0;exitY=0.645;exitDx=0;exitDy=0;exitPerimeter=0;entryX=1;entryY=0.645;entryDx=0;entryDy=0;entryPerimeter=0;startArrow=none;startFill=0;endArrow=none;endFill=0;" edge="1" parent="212" source="222" target="217">
                    <mxGeometry relative="1" as="geometry"/>
                </mxCell>
                <mxCell id="226" style="edgeStyle=orthogonalEdgeStyle;rounded=0;orthogonalLoop=1;jettySize=auto;html=1;exitX=1;exitY=0.645;exitDx=0;exitDy=0;exitPerimeter=0;entryX=1.064;entryY=0.629;entryDx=0;entryDy=0;entryPerimeter=0;startArrow=none;startFill=0;endArrow=none;endFill=0;" edge="1" parent="212" source="222" target="222">
                    <mxGeometry relative="1" as="geometry"/>
                </mxCell>
                <mxCell id="113" value="" style="endArrow=none;html=1;entryX=0.5;entryY=0;entryDx=0;entryDy=0;" parent="1" target="86" edge="1">
                    <mxGeometry width="50" height="50" relative="1" as="geometry">
                        <mxPoint x="440" y="20" as="sourcePoint"/>
                        <mxPoint x="490" y="49" as="targetPoint"/>
                    </mxGeometry>
                </mxCell>
                <mxCell id="122" value="" style="endArrow=none;html=1;entryX=1;entryY=1;entryDx=0;entryDy=0;" parent="1" target="240" edge="1">
                    <mxGeometry width="50" height="50" relative="1" as="geometry">
                        <mxPoint x="300" y="376" as="sourcePoint"/>
                        <mxPoint x="338.5852785854133" y="354.36735871742707" as="targetPoint"/>
                    </mxGeometry>
                </mxCell>
                <mxCell id="118" value="" style="endArrow=none;html=1;exitX=0.5;exitY=1;exitDx=0;exitDy=0;" parent="1" source="85" edge="1">
                    <mxGeometry width="50" height="50" relative="1" as="geometry">
                        <mxPoint x="440" y="171" as="sourcePoint"/>
                        <mxPoint x="440" y="181" as="targetPoint"/>
                    </mxGeometry>
                </mxCell>
                <mxCell id="196" value="" style="group" vertex="1" connectable="0" parent="1">
                    <mxGeometry x="395" y="37" width="54.00038969321071" height="129" as="geometry"/>
                </mxCell>
                <mxCell id="126" style="edgeStyle=orthogonalEdgeStyle;rounded=0;orthogonalLoop=1;jettySize=auto;html=1;entryX=0.5;entryY=0;entryDx=0;entryDy=0;startArrow=none;startFill=0;endArrow=none;endFill=0;" edge="1" parent="196" target="85">
                    <mxGeometry relative="1" as="geometry">
                        <mxPoint x="45" y="122" as="sourcePoint"/>
                    </mxGeometry>
                </mxCell>
                <mxCell id="8" value="" style="pointerEvents=1;verticalLabelPosition=bottom;shadow=0;dashed=0;align=center;html=1;verticalAlign=top;shape=mxgraph.electrical.inductors.inductor_5;rotation=90;" parent="196" vertex="1">
                    <mxGeometry x="25.750389693210707" y="95.7503896932107" width="42.5" height="14" as="geometry"/>
                </mxCell>
                <mxCell id="185" value="" style="group" vertex="1" connectable="0" parent="196">
                    <mxGeometry width="54" height="83" as="geometry"/>
                </mxCell>
                <mxCell id="2" value="" style="pointerEvents=1;verticalLabelPosition=bottom;shadow=0;dashed=0;align=center;html=1;verticalAlign=top;shape=mxgraph.electrical.inductors.inductor_5;rotation=90;" parent="185" vertex="1">
                    <mxGeometry x="-13" y="15.5" width="40" height="14" as="geometry"/>
                </mxCell>
                <mxCell id="5" value="" style="pointerEvents=1;verticalLabelPosition=bottom;shadow=0;dashed=0;align=center;html=1;verticalAlign=top;shape=mxgraph.electrical.inductors.inductor_5;rotation=90;" parent="185" vertex="1">
                    <mxGeometry x="-13" y="55.5" width="40" height="14" as="geometry"/>
                </mxCell>
                <mxCell id="6" value="" style="pointerEvents=1;verticalLabelPosition=bottom;shadow=0;dashed=0;align=center;html=1;verticalAlign=top;shape=mxgraph.electrical.inductors.inductor_5;rotation=90;" parent="185" vertex="1">
                    <mxGeometry x="27" y="16" width="40" height="14" as="geometry"/>
                </mxCell>
                <mxCell id="7" value="" style="pointerEvents=1;verticalLabelPosition=bottom;shadow=0;dashed=0;align=center;html=1;verticalAlign=top;shape=mxgraph.electrical.inductors.inductor_5;rotation=90;" parent="185" vertex="1">
                    <mxGeometry x="27" y="56" width="40" height="14" as="geometry"/>
                </mxCell>
                <mxCell id="86" value="" style="ellipse;whiteSpace=wrap;html=1;aspect=fixed;fillColor=#000000;strokeColor=#000000;" parent="185" vertex="1">
                    <mxGeometry x="42.5" width="5" height="5" as="geometry"/>
                </mxCell>
                <mxCell id="112" value="" style="endArrow=none;html=1;entryX=-0.003;entryY=0.857;entryDx=0;entryDy=0;entryPerimeter=0;" parent="185" target="6" edge="1">
                    <mxGeometry width="50" height="50" relative="1" as="geometry">
                        <mxPoint x="5.000000000000001" y="3" as="sourcePoint"/>
                        <mxPoint x="35" y="3" as="targetPoint"/>
                    </mxGeometry>
                </mxCell>
                <mxCell id="41" value="" style="pointerEvents=1;verticalLabelPosition=bottom;shadow=0;dashed=0;align=center;html=1;verticalAlign=top;shape=mxgraph.electrical.inductors.inductor_5;rotation=90;" parent="196" vertex="1">
                    <mxGeometry x="-14.869610306789298" y="95.12038969321071" width="43.75" height="14" as="geometry"/>
                </mxCell>
                <mxCell id="85" value="" style="ellipse;whiteSpace=wrap;html=1;aspect=fixed;fillColor=#000000;strokeColor=#000000;" parent="196" vertex="1">
                    <mxGeometry x="42.5" y="124" width="5" height="5" as="geometry"/>
                </mxCell>
                <mxCell id="89" value="" style="endArrow=none;html=1;entryX=-0.03;entryY=0.4;entryDx=0;entryDy=0;entryPerimeter=0;" parent="196" target="85" edge="1">
                    <mxGeometry width="50" height="50" relative="1" as="geometry">
                        <mxPoint x="5" y="126" as="sourcePoint"/>
                        <mxPoint x="84.96999999999991" y="124" as="targetPoint"/>
                    </mxGeometry>
                </mxCell>
                <mxCell id="127" style="edgeStyle=orthogonalEdgeStyle;rounded=0;orthogonalLoop=1;jettySize=auto;html=1;exitX=0;exitY=0.645;exitDx=0;exitDy=0;exitPerimeter=0;entryX=1;entryY=0.645;entryDx=0;entryDy=0;entryPerimeter=0;startArrow=none;startFill=0;endArrow=none;endFill=0;" edge="1" parent="196" source="41" target="5">
                    <mxGeometry relative="1" as="geometry"/>
                </mxCell>
                <mxCell id="131" style="edgeStyle=orthogonalEdgeStyle;rounded=0;orthogonalLoop=1;jettySize=auto;html=1;exitX=1;exitY=0.645;exitDx=0;exitDy=0;exitPerimeter=0;entryX=1.064;entryY=0.629;entryDx=0;entryDy=0;entryPerimeter=0;startArrow=none;startFill=0;endArrow=none;endFill=0;" edge="1" parent="196" source="41" target="41">
                    <mxGeometry relative="1" as="geometry"/>
                </mxCell>
                <mxCell id="228" value="" style="group;rotation=35;" vertex="1" connectable="0" parent="1">
                    <mxGeometry x="333.13" y="197" width="54.00038969321071" height="129" as="geometry"/>
                </mxCell>
                <mxCell id="229" value="" style="group;rotation=35;" vertex="1" connectable="0" parent="228">
                    <mxGeometry width="54.00038969321071" height="129" as="geometry"/>
                </mxCell>
                <mxCell id="230" style="edgeStyle=orthogonalEdgeStyle;rounded=0;orthogonalLoop=1;jettySize=auto;html=1;entryX=0.5;entryY=0;entryDx=0;entryDy=0;startArrow=none;startFill=0;endArrow=none;endFill=0;" edge="1" parent="229" target="240">
                    <mxGeometry relative="1" as="geometry">
                        <mxPoint y="122" as="sourcePoint"/>
                    </mxGeometry>
                </mxCell>
                <mxCell id="231" value="" style="pointerEvents=1;verticalLabelPosition=bottom;shadow=0;dashed=0;align=center;html=1;verticalAlign=top;shape=mxgraph.electrical.inductors.inductor_5;rotation=125;" vertex="1" parent="229">
                    <mxGeometry x="-9" y="101" width="42.5" height="14" as="geometry"/>
                </mxCell>
                <mxCell id="232" value="" style="group;rotation=35;" vertex="1" connectable="0" parent="229">
                    <mxGeometry x="13" y="4" width="54" height="83" as="geometry"/>
                </mxCell>
                <mxCell id="233" value="" style="pointerEvents=1;verticalLabelPosition=bottom;shadow=0;dashed=0;align=center;html=1;verticalAlign=top;shape=mxgraph.electrical.inductors.inductor_5;rotation=125;" vertex="1" parent="232">
                    <mxGeometry x="-7" y="8" width="40" height="14" as="geometry"/>
                </mxCell>
                <mxCell id="234" value="" style="pointerEvents=1;verticalLabelPosition=bottom;shadow=0;dashed=0;align=center;html=1;verticalAlign=top;shape=mxgraph.electrical.inductors.inductor_5;rotation=125;" vertex="1" parent="232">
                    <mxGeometry x="-31" y="41" width="40" height="14" as="geometry"/>
                </mxCell>
                <mxCell id="235" value="" style="pointerEvents=1;verticalLabelPosition=bottom;shadow=0;dashed=0;align=center;html=1;verticalAlign=top;shape=mxgraph.electrical.inductors.inductor_5;rotation=125;" vertex="1" parent="232">
                    <mxGeometry x="25" y="31" width="40" height="14" as="geometry"/>
                </mxCell>
                <mxCell id="236" value="" style="pointerEvents=1;verticalLabelPosition=bottom;shadow=0;dashed=0;align=center;html=1;verticalAlign=top;shape=mxgraph.electrical.inductors.inductor_5;rotation=125;" vertex="1" parent="232">
                    <mxGeometry x="2" y="63" width="40" height="14" as="geometry"/>
                </mxCell>
                <mxCell id="237" value="" style="ellipse;whiteSpace=wrap;html=1;aspect=fixed;fillColor=#000000;strokeColor=#000000;rotation=35;" vertex="1" parent="232">
                    <mxGeometry x="53" y="17" width="5" height="5" as="geometry"/>
                </mxCell>
                <mxCell id="238" value="" style="endArrow=none;html=1;entryX=-0.003;entryY=0.857;entryDx=0;entryDy=0;entryPerimeter=0;" edge="1" parent="232" target="235">
                    <mxGeometry width="50" height="50" relative="1" as="geometry">
                        <mxPoint x="22" y="-2" as="sourcePoint"/>
                        <mxPoint x="47" y="14" as="targetPoint"/>
                    </mxGeometry>
                </mxCell>
                <mxCell id="239" value="" style="pointerEvents=1;verticalLabelPosition=bottom;shadow=0;dashed=0;align=center;html=1;verticalAlign=top;shape=mxgraph.electrical.inductors.inductor_5;rotation=125;" vertex="1" parent="229">
                    <mxGeometry x="-42" y="77" width="43.75" height="14" as="geometry"/>
                </mxCell>
                <mxCell id="240" value="" style="ellipse;whiteSpace=wrap;html=1;aspect=fixed;fillColor=#000000;strokeColor=#000000;rotation=35;" vertex="1" parent="229">
                    <mxGeometry x="-5" y="124" width="5" height="5" as="geometry"/>
                </mxCell>
                <mxCell id="241" value="" style="endArrow=none;html=1;entryX=-0.03;entryY=0.4;entryDx=0;entryDy=0;entryPerimeter=0;" edge="1" parent="229" target="240">
                    <mxGeometry width="50" height="50" relative="1" as="geometry">
                        <mxPoint x="-35" y="102" as="sourcePoint"/>
                        <mxPoint x="32" y="147" as="targetPoint"/>
                    </mxGeometry>
                </mxCell>
                <mxCell id="242" style="edgeStyle=orthogonalEdgeStyle;rounded=0;orthogonalLoop=1;jettySize=auto;html=1;exitX=0;exitY=0.645;exitDx=0;exitDy=0;exitPerimeter=0;entryX=1;entryY=0.645;entryDx=0;entryDy=0;entryPerimeter=0;startArrow=none;startFill=0;endArrow=none;endFill=0;" edge="1" parent="229" source="239" target="234">
                    <mxGeometry relative="1" as="geometry"/>
                </mxCell>
                <mxCell id="243" style="edgeStyle=orthogonalEdgeStyle;rounded=0;orthogonalLoop=1;jettySize=auto;html=1;exitX=1;exitY=0.645;exitDx=0;exitDy=0;exitPerimeter=0;entryX=1.064;entryY=0.629;entryDx=0;entryDy=0;entryPerimeter=0;startArrow=none;startFill=0;endArrow=none;endFill=0;" edge="1" parent="229" source="239" target="239">
                    <mxGeometry relative="1" as="geometry"/>
                </mxCell>
                <mxCell id="245" value="" style="endArrow=none;html=1;exitX=0.5;exitY=0;exitDx=0;exitDy=0;" edge="1" parent="1" source="237">
                    <mxGeometry width="50" height="50" relative="1" as="geometry">
                        <mxPoint x="400" y="220" as="sourcePoint"/>
                        <mxPoint x="440" y="180" as="targetPoint"/>
                    </mxGeometry>
                </mxCell>
                <mxCell id="246" value="" style="endArrow=none;html=1;exitX=0.5;exitY=1;exitDx=0;exitDy=0;" edge="1" parent="1" source="223">
                    <mxGeometry width="50" height="50" relative="1" as="geometry">
                        <mxPoint x="410" y="230" as="sourcePoint"/>
                        <mxPoint x="440" y="180" as="targetPoint"/>
                    </mxGeometry>
                </mxCell>
            </root>
        </mxGraphModel>
    </diagram>
</mxfile>